<svg id="visual" viewBox="0 0 1400 3600" width="1400" height="3600" xmlns="http://www.w3.org/2000/svg" xmlns:xlink="http://www.w3.org/1999/xlink" version="1.1" shape-rendering="crispEdges"><path d="M0 109L156 109L156 109L311 109L311 145L467 145L467 181L622 181L622 181L778 181L778 109L933 109L933 145L1089 145L1089 109L1244 109L1244 181L1400 181L1400 145L1400 0L1400 0L1244 0L1244 0L1089 0L1089 0L933 0L933 0L778 0L778 0L622 0L622 0L467 0L467 0L311 0L311 0L156 0L156 0L0 0Z" fill="#0b0b0b"></path><path d="M0 325L156 325L156 397L311 397L311 361L467 361L467 469L622 469L622 397L778 397L778 361L933 361L933 397L1089 397L1089 361L1244 361L1244 361L1400 361L1400 325L1400 143L1400 179L1244 179L1244 107L1089 107L1089 143L933 143L933 107L778 107L778 179L622 179L622 179L467 179L467 143L311 143L311 107L156 107L156 107L0 107Z" fill="#0a0b0e"></path><path d="M0 685L156 685L156 685L311 685L311 685L467 685L467 757L622 757L622 613L778 613L778 613L933 613L933 793L1089 793L1089 613L1244 613L1244 685L1400 685L1400 757L1400 323L1400 359L1244 359L1244 359L1089 359L1089 395L933 395L933 359L778 359L778 395L622 395L622 467L467 467L467 359L311 359L311 395L156 395L156 323L0 323Z" fill="#0a0a11"></path><path d="M0 1621L156 1621L156 1333L311 1333L311 1225L467 1225L467 1333L622 1333L622 1549L778 1549L778 1261L933 1261L933 1585L1089 1585L1089 1549L1244 1549L1244 1297L1400 1297L1400 1297L1400 755L1400 683L1244 683L1244 611L1089 611L1089 791L933 791L933 611L778 611L778 611L622 611L622 755L467 755L467 683L311 683L311 683L156 683L156 683L0 683Z" fill="#090a14"></path><path d="M0 1765L156 1765L156 1585L311 1585L311 1369L467 1369L467 1585L622 1585L622 1801L778 1801L778 1441L933 1441L933 1837L1089 1837L1089 1693L1244 1693L1244 1549L1400 1549L1400 1477L1400 1295L1400 1295L1244 1295L1244 1547L1089 1547L1089 1583L933 1583L933 1259L778 1259L778 1547L622 1547L622 1331L467 1331L467 1223L311 1223L311 1331L156 1331L156 1619L0 1619Z" fill="#080a16"></path><path d="M0 2377L156 2377L156 2269L311 2269L311 2377L467 2377L467 2305L622 2305L622 2377L778 2377L778 2341L933 2341L933 2341L1089 2341L1089 2341L1244 2341L1244 2233L1400 2233L1400 2233L1400 1475L1400 1547L1244 1547L1244 1691L1089 1691L1089 1835L933 1835L933 1439L778 1439L778 1799L622 1799L622 1583L467 1583L467 1367L311 1367L311 1583L156 1583L156 1763L0 1763Z" fill="#070918"></path><path d="M0 2593L156 2593L156 2413L311 2413L311 2593L467 2593L467 2413L622 2413L622 2557L778 2557L778 2449L933 2449L933 2557L1089 2557L1089 2521L1244 2521L1244 2449L1400 2449L1400 2449L1400 2231L1400 2231L1244 2231L1244 2339L1089 2339L1089 2339L933 2339L933 2339L778 2339L778 2375L622 2375L622 2303L467 2303L467 2375L311 2375L311 2267L156 2267L156 2375L0 2375Z" fill="#07091a"></path><path d="M0 2701L156 2701L156 2557L311 2557L311 2701L467 2701L467 2521L622 2521L622 2665L778 2665L778 2557L933 2557L933 2665L1089 2665L1089 2629L1244 2629L1244 2557L1400 2557L1400 2593L1400 2447L1400 2447L1244 2447L1244 2519L1089 2519L1089 2555L933 2555L933 2447L778 2447L778 2555L622 2555L622 2411L467 2411L467 2591L311 2591L311 2411L156 2411L156 2591L0 2591Z" fill="#06081c"></path><path d="M0 3097L156 3097L156 3061L311 3061L311 3097L467 3097L467 3025L622 3025L622 2989L778 2989L778 3061L933 3061L933 2989L1089 2989L1089 2953L1244 2953L1244 2953L1400 2953L1400 3133L1400 2591L1400 2555L1244 2555L1244 2627L1089 2627L1089 2663L933 2663L933 2555L778 2555L778 2663L622 2663L622 2519L467 2519L467 2699L311 2699L311 2555L156 2555L156 2699L0 2699Z" fill="#04081e"></path><path d="M0 3313L156 3313L156 3241L311 3241L311 3277L467 3277L467 3241L622 3241L622 3133L778 3133L778 3241L933 3241L933 3205L1089 3205L1089 3169L1244 3169L1244 3169L1400 3169L1400 3277L1400 3131L1400 2951L1244 2951L1244 2951L1089 2951L1089 2987L933 2987L933 3059L778 3059L778 2987L622 2987L622 3023L467 3023L467 3095L311 3095L311 3059L156 3059L156 3095L0 3095Z" fill="#030820"></path><path d="M0 3421L156 3421L156 3349L311 3349L311 3421L467 3421L467 3349L622 3349L622 3313L778 3313L778 3385L933 3385L933 3349L1089 3349L1089 3349L1244 3349L1244 3349L1400 3349L1400 3385L1400 3275L1400 3167L1244 3167L1244 3167L1089 3167L1089 3203L933 3203L933 3239L778 3239L778 3131L622 3131L622 3239L467 3239L467 3275L311 3275L311 3239L156 3239L156 3311L0 3311Z" fill="#020722"></path><path d="M0 3601L156 3601L156 3601L311 3601L311 3601L467 3601L467 3601L622 3601L622 3601L778 3601L778 3601L933 3601L933 3601L1089 3601L1089 3601L1244 3601L1244 3601L1400 3601L1400 3601L1400 3383L1400 3347L1244 3347L1244 3347L1089 3347L1089 3347L933 3347L933 3383L778 3383L778 3311L622 3311L622 3347L467 3347L467 3419L311 3419L311 3347L156 3347L156 3419L0 3419Z" fill="#000724"></path></svg>