<svg id="visual" viewBox="0 0 1400 3600" width="1400" height="3600" xmlns="http://www.w3.org/2000/svg" xmlns:xlink="http://www.w3.org/1999/xlink" version="1.1" shape-rendering="crispEdges"><path d="M0 361L156 361L156 253L311 253L311 361L467 361L467 361L622 361L622 289L778 289L778 289L933 289L933 397L1089 397L1089 289L1244 289L1244 325L1400 325L1400 253L1400 0L1400 0L1244 0L1244 0L1089 0L1089 0L933 0L933 0L778 0L778 0L622 0L622 0L467 0L467 0L311 0L311 0L156 0L156 0L0 0Z" fill="#0b0b0b"></path><path d="M0 541L156 541L156 469L311 469L311 541L467 541L467 685L622 685L622 469L778 469L778 577L933 577L933 577L1089 577L1089 613L1244 613L1244 649L1400 649L1400 541L1400 251L1400 323L1244 323L1244 287L1089 287L1089 395L933 395L933 287L778 287L778 287L622 287L622 359L467 359L467 359L311 359L311 251L156 251L156 359L0 359Z" fill="#0a0a11"></path><path d="M0 1117L156 1117L156 1081L311 1081L311 1081L467 1081L467 1225L622 1225L622 973L778 973L778 1081L933 1081L933 1081L1089 1081L1089 1297L1244 1297L1244 1189L1400 1189L1400 1261L1400 539L1400 647L1244 647L1244 611L1089 611L1089 575L933 575L933 575L778 575L778 467L622 467L622 683L467 683L467 539L311 539L311 467L156 467L156 539L0 539Z" fill="#080a15"></path><path d="M0 1513L156 1513L156 1405L311 1405L311 1441L467 1441L467 1657L622 1657L622 1261L778 1261L778 1369L933 1369L933 1477L1089 1477L1089 1693L1244 1693L1244 1549L1400 1549L1400 1585L1400 1259L1400 1187L1244 1187L1244 1295L1089 1295L1089 1079L933 1079L933 1079L778 1079L778 971L622 971L622 1223L467 1223L467 1079L311 1079L311 1079L156 1079L156 1115L0 1115Z" fill="#070919"></path><path d="M0 1981L156 1981L156 1837L311 1837L311 1873L467 1873L467 1945L622 1945L622 1693L778 1693L778 1657L933 1657L933 1801L1089 1801L1089 1981L1244 1981L1244 2017L1400 2017L1400 1945L1400 1583L1400 1547L1244 1547L1244 1691L1089 1691L1089 1475L933 1475L933 1367L778 1367L778 1259L622 1259L622 1655L467 1655L467 1439L311 1439L311 1403L156 1403L156 1511L0 1511Z" fill="#05081d"></path><path d="M0 2845L156 2845L156 2593L311 2593L311 2917L467 2917L467 2953L622 2953L622 2845L778 2845L778 2557L933 2557L933 2593L1089 2593L1089 2593L1244 2593L1244 2953L1400 2953L1400 2629L1400 1943L1400 2015L1244 2015L1244 1979L1089 1979L1089 1799L933 1799L933 1655L778 1655L778 1691L622 1691L622 1943L467 1943L467 1871L311 1871L311 1835L156 1835L156 1979L0 1979Z" fill="#030820"></path><path d="M0 3601L156 3601L156 3601L311 3601L311 3601L467 3601L467 3601L622 3601L622 3601L778 3601L778 3601L933 3601L933 3601L1089 3601L1089 3601L1244 3601L1244 3601L1400 3601L1400 3601L1400 2627L1400 2951L1244 2951L1244 2591L1089 2591L1089 2591L933 2591L933 2555L778 2555L778 2843L622 2843L622 2951L467 2951L467 2915L311 2915L311 2591L156 2591L156 2843L0 2843Z" fill="#000724"></path></svg>