<svg id="visual" viewBox="0 0 1400 3600" width="1400" height="3600" xmlns="http://www.w3.org/2000/svg" xmlns:xlink="http://www.w3.org/1999/xlink" version="1.1" shape-rendering="crispEdges"><path d="M0 433L156 433L156 361L311 361L311 433L467 433L467 289L622 289L622 253L778 253L778 469L933 469L933 253L1089 253L1089 361L1244 361L1244 397L1400 397L1400 289L1400 0L1400 0L1244 0L1244 0L1089 0L1089 0L933 0L933 0L778 0L778 0L622 0L622 0L467 0L467 0L311 0L311 0L156 0L156 0L0 0Z" fill="#0f0f0f"></path><path d="M0 1045L156 1045L156 829L311 829L311 1153L467 1153L467 865L622 865L622 649L778 649L778 901L933 901L933 649L1089 649L1089 757L1244 757L1244 829L1400 829L1400 865L1400 287L1400 395L1244 395L1244 359L1089 359L1089 251L933 251L933 467L778 467L778 251L622 251L622 287L467 287L467 431L311 431L311 359L156 359L156 431L0 431Z" fill="#0d0e13"></path><path d="M0 1297L156 1297L156 1117L311 1117L311 1333L467 1333L467 1045L622 1045L622 865L778 865L778 1117L933 1117L933 973L1089 973L1089 1045L1244 1045L1244 1045L1400 1045L1400 1153L1400 863L1400 827L1244 827L1244 755L1089 755L1089 647L933 647L933 899L778 899L778 647L622 647L622 863L467 863L467 1151L311 1151L311 827L156 827L156 1043L0 1043Z" fill="#0b0c17"></path><path d="M0 1657L156 1657L156 1549L311 1549L311 1621L467 1621L467 1405L622 1405L622 1261L778 1261L778 1549L933 1549L933 1405L1089 1405L1089 1369L1244 1369L1244 1477L1400 1477L1400 1549L1400 1151L1400 1043L1244 1043L1244 1043L1089 1043L1089 971L933 971L933 1115L778 1115L778 863L622 863L622 1043L467 1043L467 1331L311 1331L311 1115L156 1115L156 1295L0 1295Z" fill="#090b1a"></path><path d="M0 2269L156 2269L156 2125L311 2125L311 2485L467 2485L467 2341L622 2341L622 2089L778 2089L778 2485L933 2485L933 2593L1089 2593L1089 2053L1244 2053L1244 2269L1400 2269L1400 2449L1400 1547L1400 1475L1244 1475L1244 1367L1089 1367L1089 1403L933 1403L933 1547L778 1547L778 1259L622 1259L622 1403L467 1403L467 1619L311 1619L311 1547L156 1547L156 1655L0 1655Z" fill="#060a1d"></path><path d="M0 2593L156 2593L156 2485L311 2485L311 2701L467 2701L467 2557L622 2557L622 2485L778 2485L778 2737L933 2737L933 2881L1089 2881L1089 2341L1244 2341L1244 2629L1400 2629L1400 2773L1400 2447L1400 2267L1244 2267L1244 2051L1089 2051L1089 2591L933 2591L933 2483L778 2483L778 2087L622 2087L622 2339L467 2339L467 2483L311 2483L311 2123L156 2123L156 2267L0 2267Z" fill="#030821"></path><path d="M0 3601L156 3601L156 3601L311 3601L311 3601L467 3601L467 3601L622 3601L622 3601L778 3601L778 3601L933 3601L933 3601L1089 3601L1089 3601L1244 3601L1244 3601L1400 3601L1400 3601L1400 2771L1400 2627L1244 2627L1244 2339L1089 2339L1089 2879L933 2879L933 2735L778 2735L778 2483L622 2483L622 2555L467 2555L467 2699L311 2699L311 2483L156 2483L156 2591L0 2591Z" fill="#000724"></path></svg>