<svg xmlns="http://www.w3.org/2000/svg" viewBox="0 0 1440 320"><path fill="#000000" fill-opacity="1" d="M0,32L0,192L36.9,192L36.9,256L73.8,256L73.8,96L110.8,96L110.8,256L147.7,256L147.7,256L184.6,256L184.6,224L221.5,224L221.5,160L258.5,160L258.5,32L295.4,32L295.4,32L332.3,32L332.3,32L369.2,32L369.2,32L406.2,32L406.2,224L443.1,224L443.1,192L480,192L480,96L516.9,96L516.9,32L553.8,32L553.8,32L590.8,32L590.8,128L627.7,128L627.7,96L664.6,96L664.6,224L701.5,224L701.5,64L738.5,64L738.5,224L775.4,224L775.4,0L812.3,0L812.3,96L849.2,96L849.2,0L886.2,0L886.2,160L923.1,160L923.1,224L960,224L960,224L996.9,224L996.9,32L1033.8,32L1033.8,192L1070.8,192L1070.8,128L1107.7,128L1107.7,256L1144.6,256L1144.6,32L1181.5,32L1181.5,64L1218.5,64L1218.5,128L1255.4,128L1255.4,128L1292.3,128L1292.3,192L1329.2,192L1329.2,96L1366.2,96L1366.2,224L1403.1,224L1403.1,64L1440,64L1440,320L1403.1,320L1403.1,320L1366.2,320L1366.2,320L1329.2,320L1329.2,320L1292.3,320L1292.3,320L1255.4,320L1255.4,320L1218.5,320L1218.5,320L1181.5,320L1181.5,320L1144.6,320L1144.6,320L1107.7,320L1107.7,320L1070.8,320L1070.8,320L1033.8,320L1033.8,320L996.9,320L996.9,320L960,320L960,320L923.1,320L923.1,320L886.2,320L886.2,320L849.2,320L849.2,320L812.3,320L812.3,320L775.4,320L775.4,320L738.5,320L738.5,320L701.5,320L701.5,320L664.6,320L664.6,320L627.7,320L627.7,320L590.8,320L590.8,320L553.8,320L553.8,320L516.9,320L516.9,320L480,320L480,320L443.1,320L443.1,320L406.2,320L406.2,320L369.2,320L369.2,320L332.3,320L332.3,320L295.4,320L295.4,320L258.5,320L258.5,320L221.5,320L221.5,320L184.6,320L184.6,320L147.7,320L147.7,320L110.8,320L110.8,320L73.8,320L73.8,320L36.9,320L36.9,320L0,320L0,320Z"></path></svg>